<svg xmlns="http://www.w3.org/2000/svg" viewBox="0 0 24 24" fill="none" stroke="#3b82f6" stroke-width="1.8" stroke-linecap="round" stroke-linejoin="round">
  <circle cx="12" cy="12" r="3"/>
  <path d="M19.4 15a1.6 1.6 0 0 0 .3 1.8l.1.1a2 2 0 0 1-2.8 2.8l-.1-.1a1.6 1.6 0 0 0-1.8-.3 1.6 1.6 0 0 0-1 1.5V22a2 2 0 0 1-4 0v-.2a1.6 1.6 0 0 0-1-1.5 1.6 1.6 0 0 0-1.8.3l-.1.1a2 2 0 0 1-2.8-2.8l.1-.1a1.6 1.6 0 0 0 .3-1.8 1.6 1.6 0 0 0-1.5-1H2a2 2 0 0 1 0-4h.2a1.6 1.6 0 0 0 1.5-1 1.6 1.6 0 0 0-.3-1.8l-.1-.1a2 2 0 0 1 2.8-2.8l.1.1a1.6 1.6 0 0 0 1.8.3H8a1.6 1.6 0 0 0 1-1.5V2a2 2 0 0 1 4 0v.2a1.6 1.6 0 0 0 1 1.5 1.6 1.6 0 0 0 1.8-.3l.1-.1a2 2 0 0 1 2.8 2.8l-.1.1a1.6 1.6 0 0 0-.3 1.8v.1a1.6 1.6 0 0 0 1.5 1H22a2 2 0 0 1 0 4h-.2a1.6 1.6 0 0 0-1.5 1z"/>
</svg>
